[img]http://img822.imageshack.us/img822/3931/threeaw.jpg[/img]
[code]
Title: The Three Musketeers 2011 720P TS XviD READNFO - ILLUMINATI
Format: Xvid 
Subtitles: No 
Sample Included: Yes 


source:
Audio :  Many Thanx   
Video: FLOPPYDiSK source files  -  Many Thanx  

imDb: http://www.imdb.com/title/tt1509767/

Plot: 
The hot-headed young D'Artagnan along with three former 
legendary but now down on their luck Musketeers must unite 
and defeat a beautiful double agent and her villainous 
employer from seizing the French throne 
and engulfing Europe in war. 

Info:

Video
ID                               : 0
Format                           : MPEG-4 Visual
Format profile                   : Advanced Simple@L5
Format settings, BVOP            : 2
Format settings, QPel            : No
Format settings, GMC             : No warppoints
Format settings, Matrix          : Default (H.263)
Muxing mode                      : Packed bitstream
Codec ID                         : XVID
Codec ID/Hint                    : XviD
Duration                         : 1h 45mn
Bit rate                         : 3 094 Kbps
Width                            : 1 280 pixels
Height                           : 528 pixels
Display aspect ratio             : 2.40:1
Frame rate                       : 25.000 fps
Color space                      : YUV
Chroma subsampling               : 4:2:0
Bit depth                        : 8 bits
Scan type                        : Progressive
Compression mode                 : Lossy
Bits/(Pixel*Frame)               : 0.183
Stream size                      : 2.27 GiB (96%)
Writing library                  : XviD 64

Audio
ID                               : 1
Format                           : MPEG Audio
Format version                   : Version 1
Format profile                   : Layer 3
Mode                             : Joint stereo
Mode extension                   : MS Stereo
Codec ID                         : 55
Codec ID/Hint                    : MP3
Duration                         : 1h 45mn
Bit rate mode                    : Constant
Bit rate                         : 128 Kbps
Channel(s)                       : 2 channels
Sampling rate                    : 44.1 KHz
Compression mode                 : Lossy
Stream size                      : 96.3 MiB (4%)
Alignment                        : Split accross interleaves
Interleave, duration             : 40 ms (1.00 video frame)

Release Notes:

Here we have a very nice release for all The Three Musketeers 2011 TS XviD READNFO - ILLUMINATI 
Video is nice overall gotter say thanks to FLOPPYDiSK tho for the sourcefiles for us to use on
this release. Video is missing 2 seconds at 50:59 so may seem OOS for a second or so but comes right back
Onto audio which honestly must say sounds very nice but is missing 8 seconds at 1:27.21 
which we used cam audio to fill that in.
[/code]
Screens:
[img]http://img823.imageshack.us/img823/7585/13763620.png[/img]
[img]http://img705.imageshack.us/img705/1056/86062388.png[/img]
[img]http://img3.imageshack.us/img3/289/27306388.png[/img]
[img]http://img23.imageshack.us/img23/1023/52844834.jpg[/img]